<?xml version="1.0" standalone="no"?>
<!DOCTYPE svg PUBLIC "-//W3C//DTD SVG 20010904//EN"
 "http://www.w3.org/TR/2001/REC-SVG-20010904/DTD/svg10.dtd">
<svg version="1.0" xmlns="http://www.w3.org/2000/svg"
 width="225.000000pt" height="225.000000pt" viewBox="0 0 225.000000 225.000000"
 preserveAspectRatio="xMidYMid meet">
<metadata>
Created by potrace 1.16, written by Peter Selinger 2001-2019
</metadata>
<g transform="translate(0.000000,225.000000) scale(0.100000,-0.100000)"
fill="#000000" stroke="none">
<path d="M195 2028 c-54 -31 -66 -71 -41 -138 84 -226 129 -414 146 -610 6
-69 12 -141 14 -160 6 -63 -23 -363 -45 -460 -26 -118 -43 -179 -86 -301 -37
-107 -41 -148 -17 -184 19 -29 72 -48 110 -39 16 4 80 27 143 51 327 127 613
174 870 143 228 -28 428 -82 599 -161 128 -60 212 -36 212 59 0 25 -15 87 -34
141 -128 368 -156 766 -80 1136 29 144 75 307 99 355 7 14 15 44 19 68 6 40 4
46 -28 78 -29 29 -41 34 -81 34 -30 0 -71 -11 -114 -30 -126 -55 -282 -105
-401 -128 -142 -28 -186 -32 -364 -32 -151 0 -214 4 -301 21 -142 26 -272 62
-360 99 -11 5 -52 23 -92 39 -74 32 -133 39 -168 19z m194 -203 c28 -14 137
-52 216 -74 163 -46 443 -72 643 -59 185 12 387 51 507 98 110 42 132 50 144
50 8 0 11 -7 8 -17 -37 -115 -60 -198 -68 -243 -40 -223 -41 -239 -41 -490 0
-188 4 -279 15 -345 9 -49 21 -115 26 -145 14 -79 38 -169 57 -213 21 -46 12
-57 -27 -34 -17 9 -39 17 -49 17 -10 0 -21 4 -24 9 -3 4 -27 14 -53 21 -27 7
-66 18 -88 25 -195 62 -562 88 -775 56 -150 -23 -318 -65 -425 -106 -114 -44
-126 -44 -104 -4 15 29 55 181 75 284 9 50 22 168 28 263 20 293 -10 589 -84
820 -17 51 -30 95 -30 98 0 8 21 4 49 -11z"/>
<path d="M1110 1180 c-173 -3 -316 -7 -317 -8 -2 -1 -3 -33 -3 -72 0 -59 3
-71 20 -80 14 -7 123 -10 330 -8 349 3 330 -1 330 81 0 51 -11 82 -32 88 -7 2
-155 2 -328 -1z"/>
</g>
</svg>
